{"accessors" : [{"bufferView" : 0, "byteOffset" : 0, "componentType" : 5123, "count" : 13536, "type" : "SCALAR", "max" : [11326], "min" : [0]}, {"bufferView" : 1, "byteOffset" : 0, "componentType" : 5126, "count" : 11327, "type" : "VEC3", "max" : [1.4999994039535522, 1.5, 1.5000011920928955], "min" : [-1.5000004768371582, -1.5, -1.5], "name" : "POSITION"}, {"bufferView" : 1, "byteOffset" : 12, "componentType" : 5126, "count" : 11327, "type" : "VEC2", "max" : [1.000000238418579, -0], "min" : [0, -1], "name" : "TEXCOORD_0"}, {"bufferView" : 1, "byteOffset" : 20, "componentType" : 5126, "count" : 11327, "type" : "VEC3", "max" : [1.0000044107437134, 1.0000044107437134, 1.0000044107437134], "min" : [-1.0000044107437134, -1.0000044107437134, -1.0000044107437134], "name" : "NORMAL"}], "asset" : {"generator" : "Aspose.3D 22.10", "version" : "2.0"}, "buffers" : [{"uri" : "data:application/octet-stream;base64,", "byteLength" : 460232}], "bufferViews" : [{"buffer" : 0, "byteOffset" : 0, "byteLength" : 27072, "target" : 34963}, {"buffer" : 0, "byteOffset" : 27076, "byteLength" : 433152, "byteStride" : 32, "target" : 34962}], "materials" : [{"name" : "Space", "pbrMetallicRoughness" : {"baseColorFactor" : [0, 0, 0, 1], "metallicFactor" : 0, "roughnessFactor" : 0.8740260004997253}, "emissiveFactor" : [0, 0, 0], "alphaMode" : "OPAQUE", "doubleSided" : false}], "meshes" : [{"primitives" : [{"attributes" : {"POSITION" : 1, "TEXCOORD_0" : 2, "NORMAL" : 3}, "indices" : 0, "material" : 0, "mode" : 4}], "name" : "Space"}], "nodes" : [{"mesh" : 0, "name" : "SphereSpace"}], "scene" : 0, "scenes" : [{"nodes" : [0]}]}